<svg width="24" height="24" viewBox="0 0 24 24" fill="none" xmlns="http://www.w3.org/2000/svg">
<path fill-rule="evenodd" clip-rule="evenodd" d="M0.605625 8.08738H5.28337V22.9093H0.605625V8.08738ZM2.82525 6.23357H2.7915C1.09781 6.23357 0 5.10051 0 3.66426C0 2.19988 1.13025 1.09082 2.8575 1.09082C4.58325 1.09082 5.6445 2.19707 5.67825 3.66013C5.67825 5.09638 4.58325 6.23357 2.82506 6.23357H2.82525ZM24 22.9091H18.6937V15.239C18.6937 13.2314 17.8641 11.8608 16.0395 11.8608C14.6439 11.8608 13.8679 12.7858 13.5064 13.6769C13.371 13.9968 13.3939 14.4425 13.3939 14.8882V22.9089H8.13937V8.08701H13.3942V10.4131C13.7047 9.39613 15.3836 7.94451 18.0636 7.94451C21.3879 7.94451 23.9998 10.0764 23.9998 14.6673V22.9089L24 22.9091Z" fill="#1d93d2"/>
</svg>
