<?xml version="1.0" standalone="no"?>
<!DOCTYPE svg PUBLIC "-//W3C//DTD SVG 20010904//EN"
 "http://www.w3.org/TR/2001/REC-SVG-20010904/DTD/svg10.dtd">
<svg version="1.0" xmlns="http://www.w3.org/2000/svg"
 width="300.000000pt" height="300.000000pt" viewBox="0 0 300.000000 300.000000"
 preserveAspectRatio="xMidYMid meet">
<metadata>
Created by potrace 1.14, written by Peter Selinger 2001-2017
</metadata>
<g transform="translate(0.000000,300.000000) scale(0.100000,-0.100000)"
fill="#000000" stroke="none">
<path d="M1045 2530 c-3 -6 1 -7 9 -4 18 7 21 14 7 14 -6 0 -13 -4 -16 -10z"/>
<path d="M1022 2475 c-1 -28 2 -64 7 -82 8 -27 6 -32 -12 -37 -20 -6 -21 -7
-5 -19 9 -7 18 -21 20 -32 2 -15 -3 -19 -22 -19 -30 0 -43 -15 -28 -33 14 -17
33 -16 51 2 13 13 16 13 21 0 3 -8 11 -15 17 -15 8 0 8 4 -1 15 -6 8 -9 19 -5
25 7 12 35 14 35 2 0 -12 31 -8 55 6 17 9 14 10 -17 5 -30 -4 -39 -2 -49 16
l-14 21 -11 -21 c-9 -18 -12 -19 -17 -5 -4 9 -1 16 6 17 7 0 3 4 -8 8 -19 8
-18 9 7 21 l27 13 -22 17 c-17 14 -23 33 -28 82 -6 62 -6 62 -7 13z"/>
<path d="M890 2455 c0 -8 2 -15 4 -15 2 0 6 7 10 15 3 8 1 15 -4 15 -6 0 -10
-7 -10 -15z"/>
<path d="M1174 2435 c-4 -21 -18 -45 -36 -60 -16 -14 -26 -25 -22 -25 5 0 3
-5 -4 -12 -17 -17 -15 -33 3 -18 8 7 15 17 15 22 0 6 14 26 30 45 17 18 30 43
30 54 0 13 4 18 12 13 7 -4 8 -3 4 4 -13 21 -25 13 -32 -23z"/>
<path d="M887 2409 c4 -13 8 -18 11 -10 2 7 -1 18 -6 23 -8 8 -9 4 -5 -13z"/>
<path d="M1221 2392 c-36 -25 -110 -98 -81 -80 24 15 118 99 109 97 -2 0 -15
-8 -28 -17z"/>
<path d="M1268 2382 l-27 -29 29 0 c20 0 30 6 34 21 12 46 2 48 -36 8z"/>
<path d="M1346 2374 c-3 -8 -10 -12 -16 -9 -6 3 -7 -1 -4 -9 3 -9 1 -16 -6
-16 -6 0 -8 -5 -5 -11 5 -6 12 -4 21 8 12 17 13 16 9 -6 -3 -16 -1 -21 5 -15
13 13 21 74 10 74 -4 0 -11 -7 -14 -16z"/>
<path d="M841 2366 c-7 -8 -8 -17 -3 -19 4 -3 13 3 20 14 14 22 0 26 -17 5z"/>
<path d="M886 2371 c-3 -5 9 -18 26 -29 36 -23 49 -21 24 3 -9 9 -16 21 -16
26 0 12 -27 12 -34 0z"/>
<path d="M1090 2355 c0 -8 4 -15 10 -15 5 0 7 7 4 15 -4 8 -8 15 -10 15 -2 0
-4 -7 -4 -15z"/>
<path d="M980 2334 c0 -13 10 -25 28 -33 22 -9 24 -9 11 1 -8 7 -21 22 -27 33
-11 20 -11 20 -12 -1z"/>
<path d="M1630 2340 c-50 -10 -91 -44 -117 -97 -21 -44 -25 -63 -21 -111 8
-91 40 -149 116 -207 118 -90 182 -157 183 -193 1 -18 2 -38 2 -44 2 -29 -15
-84 -31 -104 -79 -94 -225 -29 -257 115 -13 61 -22 29 -23 -79 0 -116 1 -117
46 -76 14 12 26 17 30 11 28 -40 127 -59 184 -37 71 29 131 137 124 224 -5 74
-52 156 -116 205 -99 76 -141 112 -166 143 -65 77 -14 220 80 220 57 0 98 -40
132 -128 12 -31 25 -57 30 -59 12 -4 11 200 -1 209 -5 5 -20 -4 -32 -19 l-22
-27 -23 20 c-37 34 -73 44 -118 34z"/>
<path d="M1220 2295 c-7 -8 -17 -12 -24 -8 -6 3 -8 3 -4 -2 4 -4 -11 -25 -34
-46 -30 -28 -45 -36 -57 -29 -16 8 -18 1 -12 -52 1 -5 5 -8 10 -8 5 0 7 10 4
21 -5 18 -3 20 14 15 15 -5 23 -1 28 11 6 16 8 16 27 -7 13 -16 19 -18 15 -7
-4 9 -2 17 3 17 6 0 10 8 11 18 1 11 4 9 9 -8 4 -14 8 -18 9 -10 1 16 60 44
70 34 3 -2 -5 -7 -17 -11 -12 -3 -22 -12 -22 -21 0 -12 4 -12 23 4 12 10 32
30 44 44 36 40 27 71 -9 33 -19 -20 -36 -35 -57 -47 -10 -7 -12 -4 -6 13 4 12
2 21 -4 21 -6 0 -11 -10 -11 -22 0 -17 -3 -19 -12 -10 -10 10 -8 19 5 42 19
32 18 40 -3 15z m-27 -65 c-3 -11 -9 -20 -14 -20 -10 0 -12 24 -2 33 13 13 21
7 16 -13z"/>
<path d="M856 2283 c-3 -10 -9 -24 -12 -30 -3 -7 -1 -13 5 -13 6 0 10 6 9 13
-2 6 2 11 7 10 6 -1 11 7 11 18 0 24 -12 25 -20 2z"/>
<path d="M1075 2270 c-3 -5 -1 -10 4 -10 6 0 11 5 11 10 0 6 -2 10 -4 10 -3 0
-8 -4 -11 -10z"/>
<path d="M876 2242 c-3 -5 4 -19 15 -30 25 -27 33 -28 17 -2 -7 11 -16 20 -21
20 -4 0 -5 5 -2 10 3 6 4 10 1 10 -3 0 -7 -4 -10 -8z"/>
<path d="M1448 2223 c-2 -4 -4 -132 -3 -283 0 -178 -3 -278 -10 -282 -6 -5 -6
-8 0 -8 7 0 10 -230 9 -672 -1 -370 1 -677 3 -682 3 -4 8 -3 12 3 8 12 6 1919
-2 1927 -3 3 -7 2 -9 -3z"/>
<path d="M936 2174 c-4 -9 -4 -19 -1 -22 3 -3 5 1 5 9 0 12 2 12 9 0 6 -8 6
-24 0 -38 -12 -31 5 -30 19 2 6 14 18 25 27 25 8 0 15 4 15 9 0 5 -8 7 -19 4
-11 -3 -21 2 -24 11 -8 21 -23 20 -31 0z"/>
<path d="M1179 2137 c6 -8 8 -17 4 -20 -3 -4 -1 -7 5 -7 14 0 14 2 6 24 -3 9
-11 16 -16 16 -7 0 -6 -5 1 -13z"/>
<path d="M1108 2133 c6 -2 9 -10 6 -15 -4 -7 -2 -8 5 -4 13 9 5 26 -12 25 -9
0 -8 -2 1 -6z"/>
<path d="M1216 2104 c-4 -9 -4 -19 -1 -22 2 -3 7 3 11 12 4 9 4 19 1 22 -2 3
-7 -3 -11 -12z"/>
<path d="M1125 2100 c-3 -5 -1 -10 4 -10 6 0 11 5 11 10 0 6 -2 10 -4 10 -3 0
-8 -4 -11 -10z"/>
<path d="M1191 2084 c0 -11 3 -14 6 -6 3 7 2 16 -1 19 -3 4 -6 -2 -5 -13z"/>
<path d="M1014 2059 c-9 -17 -18 -43 -20 -57 -3 -15 -10 -32 -16 -39 -6 -7 -7
-13 -3 -13 15 0 34 35 35 61 0 33 21 52 46 42 18 -6 18 -6 0 15 -11 12 -21 22
-22 22 -2 0 -11 -14 -20 -31z"/>
<path d="M797 2030 c-3 -11 -2 -22 3 -25 4 -3 10 4 13 15 3 11 2 22 -3 25 -4
3 -10 -4 -13 -15z"/>
<path d="M845 2040 c-3 -5 -2 -10 4 -10 5 0 13 5 16 10 3 6 2 10 -4 10 -5 0
-13 -4 -16 -10z"/>
<path d="M1041 2023 c4 -24 -2 -53 -10 -48 -6 3 -6 -7 -1 -26 8 -27 7 -30 -8
-24 -33 14 -57 16 -27 2 17 -8 25 -16 18 -20 -15 -9 -75 22 -67 35 5 7 2 8 -6
3 -8 -5 -17 -2 -24 7 -16 21 -46 31 -40 13 3 -8 9 -13 14 -12 4 1 18 -10 32
-24 l24 -26 -22 -10 c-13 -6 -28 -7 -36 -2 -9 6 -7 9 9 9 15 0 21 5 17 14 -9
24 -88 -20 -107 -59 -15 -31 -15 -33 4 -28 11 3 19 10 18 17 -3 25 2 34 20 39
11 3 22 2 25 0 9 -9 -14 -44 -25 -38 -5 4 -9 1 -9 -4 0 -6 5 -11 11 -11 5 0 7
-6 3 -12 -4 -7 2 -4 13 7 11 11 18 24 15 29 -3 5 2 7 11 3 10 -4 18 1 22 13 3
10 13 17 23 15 9 -1 26 2 37 8 18 9 19 8 6 -6 -12 -15 -10 -19 10 -36 13 -11
26 -17 29 -14 3 2 -3 9 -13 14 -9 6 -17 16 -17 23 0 22 28 27 39 8 8 -12 10
-13 11 -3 0 8 7 23 16 33 15 16 15 18 1 24 -9 3 -14 14 -11 25 2 10 6 28 8 39
3 11 0 22 -5 26 -5 3 -9 2 -8 -3z"/>
<path d="M850 2000 c0 -5 5 -10 10 -10 6 0 10 5 10 10 0 6 -4 10 -10 10 -5 0
-10 -4 -10 -10z"/>
<path d="M943 1985 c0 -8 4 -12 9 -9 5 3 6 10 3 15 -9 13 -12 11 -12 -6z"/>
<path d="M1204 1992 c4 -7 2 -12 -4 -12 -7 0 -4 -7 5 -16 9 -9 19 -13 23 -9 4
4 1 10 -6 12 -6 3 -10 9 -7 13 3 5 0 12 -6 16 -8 4 -9 3 -5 -4z"/>
<path d="M827 1944 c2 -7 11 -10 19 -7 19 7 18 10 -5 16 -13 3 -18 1 -14 -9z"/>
<path d="M775 1941 c-6 -11 13 -26 22 -17 4 3 1 6 -6 6 -7 0 -9 5 -6 10 3 6 4
10 1 10 -3 0 -7 -4 -11 -9z"/>
<path d="M1087 1939 c7 -7 15 -10 18 -7 3 3 -2 9 -12 12 -14 6 -15 5 -6 -5z"/>
<path d="M698 1917 c-18 -15 -31 -38 -38 -71 -12 -57 -10 -63 13 -36 9 11 12
20 7 20 -6 0 -10 5 -10 11 0 5 4 8 10 4 15 -9 50 18 49 40 0 20 0 20 -9 0 -5
-11 -9 -17 -11 -12 -6 23 -4 34 9 50 20 23 12 21 -20 -6z m7 -46 c7 -12 -12
-24 -25 -16 -11 7 -4 25 10 25 5 0 11 -4 15 -9z"/>
<path d="M816 1919 c6 -10 -22 -30 -29 -22 -4 3 -7 0 -7 -7 0 -7 -3 -11 -6 -7
-8 8 -24 -10 -46 -50 -13 -26 -14 -32 -3 -37 10 -3 12 0 8 11 -5 12 -3 14 7 8
8 -5 11 -4 6 3 -3 6 -2 13 4 17 6 4 8 11 5 16 -4 5 5 13 18 18 14 6 28 15 32
21 3 6 21 17 38 24 l32 13 -32 -1 c-17 -1 -29 -4 -27 -7z"/>
<path d="M1136 1912 c-3 -6 -16 -8 -29 -4 -19 5 -20 3 -10 -10 7 -8 11 -17 9
-19 -2 -2 7 -12 20 -22 21 -16 24 -16 24 -2 0 9 -4 13 -10 10 -5 -3 -10 1 -10
9 0 15 11 19 52 19 10 0 15 3 13 7 -3 5 -13 7 -23 6 -9 -2 -20 1 -23 6 -4 7
-9 6 -13 0z"/>
<path d="M1080 1881 c0 -7 -6 -11 -14 -8 -9 4 -13 0 -12 -11 4 -24 23 -26 31
-2 4 12 4 24 1 27 -3 4 -6 1 -6 -6z"/>
<path d="M1170 1859 c-7 -13 -9 -21 -5 -17 5 4 14 3 21 -3 18 -15 26 5 10 26
-13 18 -14 17 -26 -6z m24 -5 c3 -8 2 -12 -4 -9 -6 3 -10 10 -10 16 0 14 7 11
14 -7z"/>
<path d="M1351 1864 c0 -11 3 -14 6 -6 3 7 2 16 -1 19 -3 4 -6 -2 -5 -13z"/>
<path d="M1264 1841 c1 -20 76 -100 76 -81 0 6 4 9 10 5 5 -3 7 -12 3 -20 -3
-8 1 -15 8 -15 7 0 9 3 6 7 -4 3 -2 12 5 20 9 11 8 13 -3 11 -9 -2 -15 7 -17
26 -3 21 -6 25 -12 16 -7 -11 -11 -11 -24 -1 -9 8 -16 10 -16 7 0 -4 -6 -1
-14 6 -8 7 -12 16 -10 20 2 4 0 9 -4 12 -5 3 -9 -3 -8 -13z m62 -52 c19 -22
19 -22 -3 -10 -13 6 -23 16 -23 21 0 15 5 12 26 -11z"/>
<path d="M1380 1850 c-8 -5 -12 -12 -9 -15 4 -3 12 1 19 10 14 17 11 19 -10 5z"/>
<path d="M1225 1840 c3 -5 10 -10 16 -10 5 0 9 5 9 10 0 6 -7 10 -16 10 -8 0
-12 -4 -9 -10z"/>
<path d="M1030 1830 c0 -5 5 -10 10 -10 6 0 10 5 10 10 0 6 -4 10 -10 10 -5 0
-10 -4 -10 -10z"/>
<path d="M923 1816 c-20 -9 -38 -34 -31 -42 2 -1 18 11 36 27 34 30 32 34 -5
15z"/>
<path d="M793 1773 c-2 -37 3 -42 9 -8 1 11 7 23 11 26 5 3 3 9 -5 11 -9 4
-14 -5 -15 -29z"/>
<path d="M864 1783 c3 -6 -2 -16 -11 -22 -10 -6 -13 -10 -8 -11 6 0 17 5 25
10 13 8 13 11 1 22 -9 8 -12 9 -7 1z"/>
<path d="M1393 1694 c0 -7 6 -10 14 -7 7 3 13 8 13 12 0 4 -6 8 -13 8 -8 0
-14 -6 -14 -13z"/>
<path d="M1100 1397 c-56 -30 -72 -44 -91 -85 -24 -48 -27 -119 -8 -183 15
-48 111 -152 184 -198 85 -54 115 -106 109 -188 -7 -101 -82 -151 -178 -118
-51 18 -72 43 -100 117 -13 33 -26 57 -29 52 -7 -13 -5 -204 3 -204 3 0 16 9
28 20 21 20 21 20 72 -4 102 -47 211 -12 252 81 28 63 28 165 0 220 -26 50
-118 145 -164 168 -44 23 -106 92 -117 131 -10 37 -6 90 10 121 6 11 29 29 50
39 35 15 44 16 80 4 46 -16 68 -43 94 -117 29 -82 40 -67 38 49 -1 108 -7 119
-44 77 -15 -18 -49 -18 -49 0 0 10 -62 31 -91 31 -13 0 -35 -6 -49 -13z"/>
<path d="M1476 1215 c-3 -9 0 -12 9 -9 10 4 12 0 8 -15 -4 -14 -1 -21 10 -21
8 0 21 -8 28 -17 13 -16 12 -17 -3 -4 -10 7 -18 9 -18 3 0 -5 7 -13 15 -16 9
-3 15 -14 13 -23 -2 -13 3 -18 19 -17 13 1 20 -3 17 -8 -3 -5 10 -23 30 -40
48 -41 130 -222 104 -230 -14 -5 -20 -116 -7 -123 5 -4 12 0 15 9 3 9 12 12
21 9 11 -4 14 -2 9 5 -10 16 -16 74 -9 85 5 9 75 -106 79 -130 4 -21 -17 -15
-23 7 -3 11 -10 20 -15 20 -6 0 -8 -7 -4 -15 4 -10 -1 -15 -14 -15 -11 0 -19
-3 -19 -7 1 -5 1 -15 -1 -23 -1 -11 -4 -9 -10 5 -7 16 -9 17 -9 3 -1 -11 -7
-15 -21 -11 -24 6 -26 19 -4 31 12 7 13 11 5 17 -7 4 -23 -4 -38 -19 -14 -14
-29 -23 -34 -20 -9 5 -49 -67 -49 -91 0 -8 -4 -15 -9 -15 -12 0 -20 -46 -11
-60 8 -14 20 11 20 42 0 11 8 22 20 25 11 3 20 11 20 18 0 22 42 50 76 51 19
0 34 -4 34 -9 0 -5 -7 -7 -15 -3 -8 3 -15 1 -15 -3 0 -5 -3 -18 -7 -28 -6 -16
-4 -16 17 2 14 12 20 14 15 5 -4 -8 1 -6 12 5 11 11 19 23 17 26 -3 5 59 39
70 39 2 0 6 -10 9 -22 7 -26 -9 -49 -29 -41 -8 3 -24 -3 -35 -13 -12 -11 -23
-17 -24 -14 -2 3 -7 1 -12 -4 -4 -5 3 -6 19 -2 23 5 26 3 21 -11 -4 -11 -3
-14 5 -9 7 4 12 14 12 22 0 8 5 12 10 9 6 -4 -2 -25 -20 -51 -17 -24 -26 -44
-20 -44 5 0 10 4 10 9 0 5 16 18 35 29 33 20 34 20 40 2 3 -10 13 -24 22 -32
14 -10 15 -10 9 0 -5 9 -1 15 14 19 14 4 18 8 10 13 -8 5 -4 9 9 13 12 3 21 0
21 -6 0 -6 2 -8 5 -5 10 9 -7 38 -22 38 -8 0 -12 4 -8 10 3 5 12 7 20 3 10 -3
15 2 15 16 0 12 7 37 15 57 14 34 15 35 39 19 13 -9 27 -12 30 -7 3 5 -6 14
-19 20 -14 7 -24 17 -23 24 2 7 -2 12 -9 11 -11 -3 -10 27 2 46 3 5 1 12 -4
15 -5 4 -12 -3 -16 -14 -7 -23 -54 -62 -65 -55 -10 6 -25 -14 -17 -21 3 -3 19
2 35 10 29 15 31 15 37 -5 7 -22 -18 -59 -41 -59 -7 0 -17 -8 -23 -17 -5 -10
-11 -16 -13 -13 -18 28 -39 80 -34 88 5 9 -22 71 -43 96 -14 17 -71 129 -71
140 0 5 -8 15 -17 22 -17 13 -17 15 2 29 11 9 28 14 38 11 14 -3 16 -2 7 9 -8
10 -8 15 1 21 8 4 9 3 5 -4 -5 -8 0 -12 13 -12 12 0 21 -7 21 -16 0 -8 -4 -12
-10 -9 -5 3 -10 1 -10 -5 0 -6 -5 -8 -12 -4 -6 4 -8 3 -5 -3 4 -6 18 -8 32 -5
16 3 26 0 26 -9 1 -8 3 -21 3 -29 5 -46 19 -100 27 -100 5 0 9 -7 9 -16 0 -8
5 -12 10 -9 6 3 10 1 10 -4 0 -6 7 -11 15 -11 8 0 15 7 15 15 0 8 4 15 9 15 6
0 8 9 6 21 -2 11 0 28 5 37 5 9 11 25 14 35 8 26 23 13 30 -28 4 -19 11 -35
16 -35 13 0 12 5 -2 33 -33 64 -34 68 -15 65 6 -2 11 4 11 13 -1 15 3 16 35
10 2 -1 -2 -8 -9 -16 -7 -9 -9 -22 -5 -32 5 -10 7 -22 6 -26 0 -4 11 0 26 10
39 24 41 26 16 19 -13 -4 -27 -5 -32 -1 -16 9 -1 34 16 28 11 -4 14 -2 11 8
-3 8 -10 14 -16 14 -21 0 -23 13 -3 20 12 3 21 11 21 16 0 6 4 8 9 4 6 -3 15
4 21 15 6 11 8 20 5 20 -3 0 2 9 12 20 17 17 22 18 55 7 l37 -13 -19 -32 c-18
-30 -50 -46 -81 -42 -8 2 -23 2 -34 1 -18 -1 -17 -4 7 -22 16 -12 25 -26 21
-34 -3 -8 0 -15 6 -15 6 0 11 -6 11 -14 0 -8 4 -17 9 -21 13 -7 -4 52 -20 71
-16 20 -5 28 20 14 17 -9 22 -8 27 5 3 8 10 13 14 10 5 -3 11 -1 15 5 4 6 12
7 24 1 14 -8 19 -4 29 22 10 27 9 29 -2 15 -7 -10 -21 -18 -30 -18 -16 0 -15
2 1 24 23 32 50 39 56 15 6 -21 -16 -66 -44 -92 -27 -25 -24 -31 7 -11 30 20
49 55 58 106 l7 37 -38 -3 c-21 -2 -51 -2 -66 1 -24 5 -28 10 -24 30 2 13 0
26 -4 29 -5 3 -9 0 -9 -6 0 -6 -12 -11 -27 -9 -36 3 -63 -9 -63 -28 0 -8 -5
-11 -11 -8 -13 8 -59 -33 -59 -52 0 -9 10 -4 28 12 15 14 37 28 50 31 12 4 22
12 22 20 0 8 10 14 26 14 l25 0 -28 -39 c-15 -22 -31 -37 -35 -34 -5 2 -8 -3
-8 -11 0 -20 -20 -32 -30 -16 -5 8 -9 5 -13 -9 -8 -30 -30 -26 -71 14 -38 37
-55 37 -85 1 -15 -18 -6 -37 14 -30 8 4 12 10 9 15 -8 14 25 23 40 10 7 -6 16
-7 21 -3 4 4 5 -3 2 -16 -3 -12 -1 -20 4 -16 5 3 9 -9 9 -26 0 -17 -4 -29 -9
-26 -7 5 -17 -21 -36 -92 -4 -13 -12 -21 -18 -19 -17 5 -19 23 -4 38 7 8 12
20 9 27 -2 6 2 12 8 12 10 0 10 3 1 14 -9 11 -9 17 1 27 22 24 21 49 -2 49
-12 0 -19 -4 -15 -9 3 -5 -5 -13 -17 -17 -29 -9 -34 -7 -30 12 2 9 -9 26 -23
40 -20 18 -37 24 -72 24 -44 0 -85 23 -151 87 -8 7 -18 11 -23 8 -5 -4 -9 -1
-9 4 0 6 5 11 11 11 6 0 4 7 -5 15 -8 9 -23 29 -33 45 -20 34 -39 44 -47 25z
m397 -315 c3 -11 1 -23 -4 -26 -5 -3 -10 -15 -10 -27 -1 -17 -2 -18 -6 -4 -2
9 -8 15 -12 13 -11 -7 -11 35 0 56 12 22 24 17 32 -12z m32 -360 c18 -8 17 -9
-7 -9 -16 -1 -28 4 -28 9 0 12 8 12 35 0z"/>
<path d="M2306 1211 c-4 -5 3 -7 14 -4 23 6 26 13 6 13 -8 0 -17 -4 -20 -9z"/>
<path d="M2255 1174 c-25 -21 -26 -23 -4 -10 14 9 28 14 31 11 2 -3 5 2 5 10
0 8 -1 15 -1 15 -1 0 -14 -12 -31 -26z"/>
<path d="M2230 1125 c0 -8 4 -15 10 -15 5 0 7 7 4 15 -4 8 -8 15 -10 15 -2 0
-4 -7 -4 -15z"/>
<path d="M1527 1079 c7 -7 15 -10 18 -7 3 3 -2 9 -12 12 -14 6 -15 5 -6 -5z"/>
<path d="M1532 1013 c-3 -37 -2 -37 13 -18 9 11 14 15 11 8 -4 -6 -2 -14 4
-18 13 -8 13 5 -2 38 -17 36 -23 34 -26 -10z"/>
<path d="M2106 1042 c-10 -16 -26 -62 -21 -62 11 0 44 59 36 64 -5 4 -12 2
-15 -2z"/>
<path d="M2100 920 c0 -6 14 -10 30 -10 39 0 39 14 0 17 -17 1 -30 -2 -30 -7z"/>
<path d="M2030 876 c0 -3 13 -14 30 -26 23 -16 28 -18 24 -5 -8 19 -54 46 -54
31z"/>
<path d="M1996 834 c-8 -21 -8 -21 14 -27 23 -6 26 8 6 28 -12 12 -15 12 -20
-1z"/>
<path d="M2096 834 c-8 -22 1 -31 16 -16 9 9 9 15 1 23 -7 7 -12 5 -17 -7z"/>
<path d="M2045 821 c-7 -12 12 -24 25 -16 11 7 4 25 -10 25 -5 0 -11 -4 -15
-9z"/>
<path d="M1740 690 c-9 -6 -10 -10 -3 -10 6 0 15 5 18 10 8 12 4 12 -15 0z"/>
<path d="M2046 615 c18 -14 18 -16 1 -29 -16 -13 -16 -14 0 -27 10 -7 15 -9
11 -5 -4 5 -3 15 3 22 14 17 2 54 -19 54 -13 0 -13 -2 4 -15z"/>
<path d="M1676 584 c-3 -9 -6 -32 -6 -52 0 -37 0 -37 14 -12 7 15 9 30 4 36
-5 6 -6 19 -2 28 3 9 4 16 1 16 -3 0 -8 -7 -11 -16z"/>
<path d="M1618 526 c10 -13 9 -27 -1 -43 -4 -6 -4 -18 -1 -27 10 -26 33 0 28
32 -3 15 -5 32 -6 38 -1 6 -7 11 -15 11 -7 0 -9 -5 -5 -11z"/>
<path d="M1960 525 c0 -2 15 -12 33 -21 l32 -17 -19 22 c-17 19 -46 29 -46 16z"/>
<path d="M1672 467 c-1 -12 -3 -38 -6 -57 -3 -19 -3 -26 0 -15 10 40 27 75 35
75 18 0 8 16 -10 17 -13 1 -19 -5 -19 -20z"/>
<path d="M1790 340 c0 -5 5 -10 10 -10 6 0 10 5 10 10 0 6 -4 10 -10 10 -5 0
-10 -4 -10 -10z"/>
</g>
</svg>
