<svg>

	<symbol id="facebook" xmlns="http://www.w3.org/2000/svg" viewBox="0 0 48 48">
		<path fill="#039be5" d="M24 5A19 19 0 1 0 24 43A19 19 0 1 0 24 5Z" />
		<path fill="#fff" d="M26.572,29.036h4.917l0.772-4.995h-5.69v-2.73c0-2.075,0.678-3.915,2.619-3.915h3.119v-4.359c-0.548-0.074-1.707-0.236-3.897-0.236c-4.573,0-7.254,2.415-7.254,7.917v3.323h-4.701v4.995h4.701v13.729C22.089,42.905,23.032,43,24,43c0.875,0,1.729-0.08,2.572-0.194V29.036z" />
	</symbol>
	<!-- ./facebook -->

	<symbol id="gmail" xmlns="http://www.w3.org/2000/svg" viewbox="0 0 32 32">
		<path d="M16.58,19.1068l-12.69-8.0757A3,3,0,0,1,7.1109,5.97l9.31,5.9243L24.78,6.0428A3,3,0,0,1,28.22,10.9579Z" fill="#ea4435" />
		<path d="M25.5,5.5h4a0,0,0,0,1,0,0v18a3,3,0,0,1-3,3h0a3,3,0,0,1-3-3V7.5a2,2,0,0,1,2-2Z" fill="#00ac47" transform="translate(53.0001 32.0007) rotate(180)" />
		<path d="M29.4562,8.0656c-.0088-.06-.0081-.1213-.0206-.1812-.0192-.0918-.0549-.1766-.0823-.2652a2.9312,2.9312,0,0,0-.0958-.2993c-.02-.0475-.0508-.0892-.0735-.1354A2.9838,2.9838,0,0,0,28.9686,6.8c-.04-.0581-.09-.1076-.1342-.1626a3.0282,3.0282,0,0,0-.2455-.2849c-.0665-.0647-.1423-.1188-.2146-.1771a3.02,3.02,0,0,0-.24-.1857c-.0793-.0518-.1661-.0917-.25-.1359-.0884-.0461-.175-.0963-.267-.1331-.0889-.0358-.1837-.0586-.2766-.0859s-.1853-.06-.2807-.0777a3.0543,3.0543,0,0,0-.357-.036c-.0759-.0053-.1511-.0186-.2273-.018a2.9778,2.9778,0,0,0-.4219.0425c-.0563.0084-.113.0077-.1689.0193a33.211,33.211,0,0,0-.5645.178c-.0515.022-.0966.0547-.1465.0795A2.901,2.901,0,0,0,23.5,8.5v5.762l4.72-3.3043a2.8878,2.8878,0,0,0,1.2359-2.8923Z" fill="#ffba00" />
		<path d="M5.5,5.5h0a3,3,0,0,1,3,3v18a0,0,0,0,1,0,0h-4a2,2,0,0,1-2-2V8.5a3,3,0,0,1,3-3Z" fill="#4285f4" />
		<path d="M2.5439,8.0656c.0088-.06.0081-.1213.0206-.1812.0192-.0918.0549-.1766.0823-.2652A2.9312,2.9312,0,0,1,2.7426,7.32c.02-.0475.0508-.0892.0736-.1354A2.9719,2.9719,0,0,1,3.0316,6.8c.04-.0581.09-.1076.1342-.1626a3.0272,3.0272,0,0,1,.2454-.2849c.0665-.0647.1423-.1188.2147-.1771a3.0005,3.0005,0,0,1,.24-.1857c.0793-.0518.1661-.0917.25-.1359A2.9747,2.9747,0,0,1,4.3829,5.72c.089-.0358.1838-.0586.2766-.0859s.1853-.06.2807-.0777a3.0565,3.0565,0,0,1,.357-.036c.076-.0053.1511-.0186.2273-.018a2.9763,2.9763,0,0,1,.4219.0425c.0563.0084.113.0077.169.0193a2.9056,2.9056,0,0,1,.286.0888,2.9157,2.9157,0,0,1,.2785.0892c.0514.022.0965.0547.1465.0795a2.9745,2.9745,0,0,1,.3742.21A2.9943,2.9943,0,0,1,8.5,8.5v5.762L3.78,10.9579A2.8891,2.8891,0,0,1,2.5439,8.0656Z" fill="#c52528" />
	</symbol>
	<!-- ./gmail -->

	<symbol id="github" viewBox="0 0 24 24" fill="none" xmlns="http://www.w3.org/2000/svg">
		<path fill-rule="evenodd" clip-rule="evenodd" d="M11.9992 0.249878C5.373 0.249878 0 5.64369 0 12.2981C0 17.6201 3.438 22.1356 8.20725 23.729C8.80725 23.8415 9.02625 23.4676 9.02625 23.1485L9.00975 21.0997C5.6715 21.8278 4.96725 19.4846 4.96725 19.4846C4.422 18.0933 3.63525 17.7226 3.63525 17.7226C2.5455 16.9749 3.71775 16.9901 3.71775 16.9901C4.9215 17.0752 5.55525 18.2317 5.55525 18.2317C6.62625 20.0729 8.364 19.5412 9.048 19.2324C9.15675 18.4539 9.46725 17.9229 9.81 17.6199C7.14525 17.3158 4.344 16.2826 4.344 11.6662C4.344 10.3507 4.81125 9.27557 5.57925 8.43294C5.4555 8.12807 5.04375 6.90369 5.69625 5.24488C5.69625 5.24488 6.70425 4.92107 8.99625 6.47975C9.954 6.21238 10.98 6.07925 12.0007 6.07382C13.02 6.07907 14.0468 6.21256 15.0052 6.47975C17.2957 4.92107 18.3015 5.24488 18.3015 5.24488C18.9563 6.90369 18.5445 8.12807 18.4207 8.43294C19.1903 9.27557 19.6545 10.3507 19.6545 11.6662C19.6545 16.2937 16.8487 17.3128 14.1757 17.6109C14.6062 17.9829 14.9902 18.7177 14.9902 19.8421L14.9752 23.147C14.9752 23.4695 15.1912 23.8445 15.8002 23.726C20.565 22.1313 24 17.6188 24 12.2981C24 5.64369 18.627 0.249878 11.9992 0.249878Z" fill="#fff" />
	</symbol>
	<!-- ./github -->

	<symbol id="instagram" xmlns="http://www.w3.org/2000/svg" viewbox="0 0 24 24" viewBox="0 0 24 24" fill="none">
		<path fill-rule="evenodd" clip-rule="evenodd" d="M19.8456 5.59444C19.8456 5.97635 19.6938 6.34262 19.4238 6.61267C19.1537 6.88272 18.7875 7.03444 18.4056 7.03444C18.0237 7.03444 17.6574 6.88272 17.3873 6.61267C17.1173 6.34262 16.9656 5.97635 16.9656 5.59444C16.9656 5.21253 17.1173 4.84626 17.3873 4.5762C17.6574 4.30615 18.0237 4.15444 18.4056 4.15444C18.7875 4.15444 19.1537 4.30615 19.4238 4.5762C19.6938 4.84626 19.8456 5.21253 19.8456 5.59444ZM12 15.9999C9.79088 15.9999 8.00006 14.2093 8.00006 12C8.00006 9.79069 9.79088 8.00006 12 8.00006C14.2091 8.00006 15.9999 9.79088 15.9999 12C15.9999 14.2091 14.2091 15.9999 12 15.9999ZM12 5.83781C8.59688 5.83781 5.83781 8.59688 5.83781 12C5.83781 15.4031 8.59688 18.1622 12 18.1622C15.4031 18.1622 18.1622 15.4031 18.1622 12C18.1622 8.59688 15.4031 5.83781 12 5.83781ZM12 2.16225L16.8488 2.23219C18.0187 2.28562 18.6544 2.481 19.077 2.64544C19.6371 2.86294 20.037 3.12319 20.457 3.54319C20.877 3.96319 21.1371 4.36256 21.3547 4.92319C21.519 5.346 21.7148 5.98144 21.768 7.15144C21.8258 8.41706 21.8379 8.79637 21.8379 12.0006L21.768 16.8493C21.7146 18.0193 21.5192 18.6549 21.3547 19.0776C21.1372 19.6376 20.877 20.0376 20.457 20.4576C20.037 20.8776 19.6376 21.1376 19.077 21.3553C18.6542 21.5196 18.0187 21.7153 16.8488 21.7686C15.5835 21.8263 15.204 21.8385 12 21.8385C8.796 21.8385 8.41613 21.8263 7.15088 21.7686C5.98088 21.7151 5.34525 21.5197 4.92263 21.3553C4.36256 21.1378 3.96262 20.8776 3.54262 20.4576C3.12262 20.0376 2.86256 19.6382 2.64488 19.0776C2.48062 18.6548 2.28488 18.0193 2.23163 16.8493C2.17388 15.5837 2.16169 15.2044 2.16169 12.0006L2.23163 7.15144C2.28506 5.98144 2.48044 5.34581 2.64488 4.92319C2.86238 4.36312 3.12262 3.96319 3.54262 3.54319C3.96262 3.12319 4.362 2.86313 4.92263 2.64544C5.34544 2.48119 5.98088 2.28544 7.15088 2.23219C8.4165 2.17444 8.79581 2.16225 12 2.16225ZM12 0C8.74125 0 8.3325 0.013875 7.05244 0.0721875C5.775 0.1305 4.90275 0.333375 4.13962 0.63C3.35025 0.936562 2.68125 1.347 2.01412 2.01412C1.347 2.68125 0.936562 3.35062 0.63 4.13962C0.333375 4.90312 0.1305 5.775 0.0721875 7.05244C0.013875 8.3325 0 8.74125 0 12L0.0721875 16.9476C0.130313 18.2248 0.333375 19.0971 0.63 19.8604C0.936562 20.6497 1.347 21.3188 2.01412 21.9859C2.68125 22.653 3.35044 23.0632 4.13962 23.37C4.90275 23.6666 5.77519 23.8695 7.05244 23.9278C8.33231 23.9859 8.74106 24 12 24C15.2589 24 15.6675 23.9861 16.9476 23.9278C18.2248 23.8697 19.0971 23.6666 19.8604 23.37C20.6497 23.0632 21.3188 22.653 21.9859 21.9859C22.653 21.3188 23.0632 20.6496 23.37 19.8604C23.6666 19.0972 23.8695 18.2248 23.9278 16.9476C23.9859 15.6677 24 15.2589 24 12L23.9278 7.05244C23.8697 5.77519 23.6666 4.90294 23.37 4.13962C23.0632 3.35025 22.653 2.68125 21.9859 2.01412C21.3188 1.347 20.6496 0.93675 19.8604 0.63C19.0969 0.333375 18.225 0.1305 16.9476 0.0721875C15.6675 0.013875 15.2587 0 12 0Z" fill="url(#paint0_radial_3_318)" />
		<defs>
			<radialGradient id="paint0_radial_3_318" cx="0" cy="0" r="1" gradientUnits="userSpaceOnUse" gradientTransform="translate(3.58331 24.0832) scale(30.666)">
				<stop stop-color="#FFB140" />
				<stop offset="0.256" stop-color="#FF5445" />
				<stop offset="0.599" stop-color="#FC2B82" />
				<stop offset="1" stop-color="#8E40B7" />
			</radialGradient>
		</defs>
	</symbol>
	<!-- ./instagram -->

	<symbol id="linkedin" viewBox="0 0 24 24" fill="none" xmlns="http://www.w3.org/2000/svg">
		<path fill-rule="evenodd" clip-rule="evenodd" d="M0.605625 8.08738H5.28337V22.9093H0.605625V8.08738ZM2.82525 6.23357H2.7915C1.09781 6.23357 0 5.10051 0 3.66426C0 2.19988 1.13025 1.09082 2.8575 1.09082C4.58325 1.09082 5.6445 2.19707 5.67825 3.66013C5.67825 5.09638 4.58325 6.23357 2.82506 6.23357H2.82525ZM24 22.9091H18.6937V15.239C18.6937 13.2314 17.8641 11.8608 16.0395 11.8608C14.6439 11.8608 13.8679 12.7858 13.5064 13.6769C13.371 13.9968 13.3939 14.4425 13.3939 14.8882V22.9089H8.13937V8.08701H13.3942V10.4131C13.7047 9.39613 15.3836 7.94451 18.0636 7.94451C21.3879 7.94451 23.9998 10.0764 23.9998 14.6673V22.9089L24 22.9091Z" fill="#1d93d2" />
	</symbol>
	<!-- ./linkedin -->
	
	<symbol id="skype" xmlns="http://www.w3.org/2000/svg" viewBox="0 0 48 48">
		<path fill="#03a9f4" d="M24 4A20 20 0 1 0 24 44A20 20 0 1 0 24 4Z" />
		<path fill="#03a9f4" d="M33.5 22A11.5 11.5 0 1 0 33.5 45 11.5 11.5 0 1 0 33.5 22zM14.5 3A11.5 11.5 0 1 0 14.5 26 11.5 11.5 0 1 0 14.5 3z" />
		<path fill="#fff" d="M24.602,36C18,36,15,32.699,15,30.199C15,28.898,15.898,28,17.199,28c2.801,0,2.102,4.102,7.402,4.102c2.699,0,4.199-1.5,4.199-3c0-0.902-0.402-1.902-2.199-2.402l-5.902-1.5C16,24,15.102,21.398,15.102,18.898c0-5.098,4.699-6.898,9.098-6.898C28.301,12,33,14.199,33,17.199c0,1.301-1,2.102-2.301,2.102c-2.398,0-2-3.402-6.801-3.402c-2.398,0-3.797,1.102-3.797,2.703c0,1.598,1.898,2.098,3.598,2.5l4.402,1C32.898,23.199,34,26,34,28.699C33.898,32.898,30.898,36,24.602,36z" />
	</symbol>
	<!-- ./skype -->

	<symbol id="stackoverflow" xmlns="http://www.w3.org/2000/svg" viewbox="0 0 24 24" width="24" height="24" fill="none">
		<path fill-rule="evenodd" clip-rule="evenodd" d="M19.1231 9.80625L13.7396 1.97587L12.0532 3.11587L17.4371 10.944L19.1233 9.804L19.1231 9.80625ZM17.105 11.2237L8.8747 6.40819L7.83745 8.15062L16.0683 12.9645L17.1052 11.2217L17.105 11.2237ZM15.9003 13.5384L6.67307 11.0769L6.14245 13.0312L15.3706 15.4912L15.9003 13.5367V13.5384ZM15.2728 16.1775L5.75807 15.3081L5.57057 17.3237L15.0856 18.1922L15.2728 16.1775ZM21.5 9.33375L19.8656 0L17.8543 0.345937L19.4887 9.68156L21.5 9.33562V9.33375ZM15.0431 20.7962L5.48732 20.8007L5.48657 18.777L15.0419 18.7721L15.0431 20.7962Z" fill="#FF810F" />
		<path fill-rule="evenodd" clip-rule="evenodd" d="M16.6657 14.1394V22.4125H4.13244V14.1394H2.49988V24H18.29V14.1394H16.6657Z" fill="#BEBCBC" />
	</symbol>
	<!-- ./stackoverflow -->

	<symbol id="twitter" viewBox="0 0 24 24" fill="none" xmlns="http://www.w3.org/2000/svg">
		<g clip-path="url(#clip0_3_334)">
			<path fill-rule="evenodd" clip-rule="evenodd" d="M24 4.36768C23.1038 4.77571 22.1502 5.04365 21.1727 5.16212C22.1897 4.53812 22.9702 3.5485 23.3379 2.36987C22.3854 2.94775 21.3335 3.36812 20.2091 3.5935C19.3132 2.61287 18.0326 2.00012 16.6155 2.00012C13.898 2.00012 11.6936 4.26081 11.6936 7.04893C11.6936 7.44456 11.7358 7.82893 11.8204 8.19887C7.72818 7.98756 4.10061 5.97981 1.66874 2.92168C1.24499 3.66981 1.00236 4.53793 1.00236 5.46268C1.00236 7.21356 1.87161 8.75893 3.19292 9.66493C2.38724 9.64056 1.62636 9.41068 0.961675 9.03493V9.09681C0.961675 11.5437 2.65911 13.585 4.91305 14.0474C4.50055 14.1659 4.06499 14.2251 3.61555 14.2251C3.30437 14.2255 2.9939 14.1955 2.68855 14.1355C3.31536 16.1406 5.13261 17.6011 7.28792 17.6399C5.60305 18.9949 3.47886 19.8023 1.1728 19.8023C0.7753 19.8023 0.382487 19.7792 -0.0020752 19.7329C2.17724 21.163 4.76643 21.9994 7.54574 21.9994C16.6039 21.9994 21.5552 14.3071 21.5552 7.63468C21.5552 7.4165 21.5509 7.19833 21.5424 6.98031C22.505 6.26818 23.3405 5.37981 23.9983 4.36712" fill="#00AAEC" />
		</g>
		<defs>
			<clipPath id="clip0_3_334">
				<rect width="24" height="24" fill="white" />
			</clipPath>
		</defs>
	</symbol>
	<!-- ./twitter -->

	<symbol id="youtube" viewBox="0 0 24 24" fill="none" xmlns="http://www.w3.org/2000/svg">
		<path d="M18.75 19.5H5.25C2.775 19.5 0.75 17.475 0.75 15V9C0.75 6.525 2.775 4.5 5.25 4.5H18.75C21.225 4.5 23.25 6.525 23.25 9V15C23.25 17.475 21.225 19.5 18.75 19.5Z" fill="#C2191E" />
		<path d="M9 15.75V8.25L16.5 12L9 15.75Z" fill="white" />
	</symbol>
	<!-- ./youtube -->

	<symbol id="viber" xmlns="http://www.w3.org/2000/svg" viewBox="0 0 48 48">
		<path fill="#fff" d="M24,5C21.361,5,13.33,5,8.89,9.054C6.246,11.688,5,15.494,5,21v3c0,5.506,1.246,9.312,3.921,11.976 c1.332,1.215,3.148,2.186,5.368,2.857L15,39.047v5.328C15,45,15.181,45,15.241,45c0.123,0,0.32-0.039,0.694-0.371 c0.09-0.089,0.75-0.803,3.96-4.399l0.324-0.363l0.485,0.031C21.779,39.965,22.888,40,24,40c2.639,0,10.67,0,15.11-4.055 C41.753,33.311,43,29.505,43,24v-3c0-5.506-1.246-9.312-3.921-11.976C34.67,5,26.639,5,24,5z" />
		<path fill="#7e57c2" d="M33.451 28.854c-1.111-.936-1.624-1.219-3.158-2.14C29.654 26.331 28.68 26 28.169 26c-.349 0-.767.267-1.023.523C26.49 27.179 26.275 28 25.125 28c-1.125 0-3.09-1.145-4.5-2.625C19.145 23.965 18 22 18 20.875c0-1.15.806-1.38 1.462-2.037C19.718 18.583 20 18.165 20 17.816c0-.511-.331-1.47-.714-2.109-.921-1.535-1.203-2.048-2.14-3.158-.317-.376-.678-.548-1.056-.549-.639-.001-1.478.316-2.046.739-.854.637-1.747 1.504-1.986 2.584-.032.147-.051.295-.057.443-.046 1.125.396 2.267.873 3.234 1.123 2.279 2.609 4.485 4.226 6.455.517.63 1.08 1.216 1.663 1.782.566.582 1.152 1.145 1.782 1.663 1.97 1.617 4.176 3.103 6.455 4.226.958.472 2.086.906 3.2.874.159-.005.318-.023.477-.058 1.08-.238 1.947-1.132 2.584-1.986.423-.568.74-1.406.739-2.046C33.999 29.532 33.827 29.171 33.451 28.854zM34 24c-.552 0-1-.448-1-1v-1c0-4.962-4.038-9-9-9-.552 0-1-.448-1-1s.448-1 1-1c6.065 0 11 4.935 11 11v1C35 23.552 34.552 24 34 24zM27.858 22c-.444 0-.85-.298-.967-.748-.274-1.051-1.094-1.872-2.141-2.142-.535-.139-.856-.684-.718-1.219.138-.534.682-.855 1.219-.718 1.748.453 3.118 1.822 3.575 3.574.139.535-.181 1.08-.715 1.22C28.026 21.989 27.941 22 27.858 22z" />
		<path fill="#7e57c2" d="M31,23c-0.552,0-1-0.448-1-1c0-3.188-2.494-5.818-5.678-5.986c-0.552-0.029-0.975-0.5-0.946-1.051 c0.029-0.552,0.508-0.976,1.051-0.946C28.674,14.241,32,17.748,32,22C32,22.552,31.552,23,31,23z" />
		<path fill="#7e57c2" d="M24,4C19.5,4,12.488,4.414,8.216,8.316C5.196,11.323,4,15.541,4,21c0,0.452-0.002,0.956,0.002,1.5 C3.998,23.043,4,23.547,4,23.999c0,5.459,1.196,9.677,4.216,12.684c1.626,1.485,3.654,2.462,5.784,3.106v4.586 C14,45.971,15.049,46,15.241,46h0.009c0.494-0.002,0.921-0.244,1.349-0.624c0.161-0.143,2.02-2.215,4.042-4.481 C21.845,40.972,22.989,41,23.999,41c0,0,0,0,0,0s0,0,0,0c4.5,0,11.511-0.415,15.784-4.317c3.019-3.006,4.216-7.225,4.216-12.684 c0-0.452,0.002-0.956-0.002-1.5c0.004-0.544,0.002-1.047,0.002-1.5c0-5.459-1.196-9.677-4.216-12.684C35.511,4.414,28.5,4,24,4z M41,23.651l0,0.348c0,4.906-1.045,8.249-3.286,10.512C33.832,38,26.437,38,23.999,38c-0.742,0-1.946-0.001-3.367-0.1 C20.237,38.344,16,43.083,16,43.083V37.22c-2.104-0.505-4.183-1.333-5.714-2.708C8.045,32.248,7,28.905,7,23.999l0-0.348 c0-0.351-0.001-0.73,0.002-1.173C6.999,22.078,6.999,21.7,7,21.348L7,21c0-4.906,1.045-8.249,3.286-10.512 C14.167,6.999,21.563,6.999,24,6.999c2.437,0,9.832,0,13.713,3.489c2.242,2.263,3.286,5.606,3.286,10.512l0,0.348 c0,0.351,0.001,0.73-0.002,1.173C41,22.922,41,23.3,41,23.651z" />
	</symbol>
	<!-- ./viber -->

	<symbol id="whatsapp" xmlns="http://www.w3.org/2000/svg" viewBox="0 0 40 40">
		<path fill="#f2faff" d="M4.221,29.298l-0.104-0.181c-1.608-2.786-2.459-5.969-2.458-9.205 C1.663,9.76,9.926,1.5,20.078,1.5c4.926,0.002,9.553,1.919,13.03,5.399c3.477,3.48,5.392,8.107,5.392,13.028 c-0.005,10.153-8.268,18.414-18.42,18.414c-3.082-0.002-6.126-0.776-8.811-2.24l-0.174-0.096l-9.385,2.46L4.221,29.298z" />
		<path fill="#788b9c" d="M20.078,2L20.078,2c4.791,0.001,9.293,1.867,12.676,5.253C36.137,10.639,38,15.14,38,19.927 c-0.005,9.878-8.043,17.914-17.927,17.914c-2.991-0.001-5.952-0.755-8.564-2.18l-0.349-0.19l-0.384,0.101l-8.354,2.19 l2.226-8.131l0.11-0.403L4.55,28.867c-1.566-2.711-2.393-5.808-2.391-8.955C2.163,10.036,10.202,2,20.078,2 M20.078,1 C9.651,1,1.163,9.485,1.158,19.912c-0.002,3.333,0.869,6.588,2.525,9.455L1,39.169l10.03-2.63c2.763,1.507,5.875,2.3,9.042,2.302 h0.008c10.427,0,18.915-8.485,18.92-18.914c0-5.054-1.966-9.807-5.538-13.382C29.89,2.971,25.14,1.002,20.078,1L20.078,1z" />
		<path fill="#79ba7e" d="M19.995,35c-2.504-0.001-4.982-0.632-7.166-1.823l-1.433-0.782l-1.579,0.414l-3.241,0.85l0.83-3.03	l0.453-1.656L7,27.485c-1.309-2.267-2.001-4.858-2-7.492C5.004,11.726,11.732,5.001,19.998,5c4.011,0.001,7.779,1.563,10.61,4.397	C33.441,12.231,35,15.999,35,20.005C34.996,28.273,28.268,35,19.995,35z" />
		<path fill="#fff" d="M28.28,23.688c-0.45-0.224-2.66-1.313-3.071-1.462c-0.413-0.151-0.712-0.224-1.012,0.224	c-0.3,0.45-1.161,1.462-1.423,1.761c-0.262,0.3-0.524,0.337-0.974,0.113c-0.45-0.224-1.899-0.7-3.615-2.231	c-1.337-1.191-2.239-2.663-2.501-3.113c-0.262-0.45-0.029-0.693,0.197-0.917c0.202-0.202,0.45-0.525,0.674-0.787	c0.224-0.262,0.3-0.45,0.45-0.75c0.151-0.3,0.075-0.563-0.038-0.787c-0.113-0.224-1.012-2.437-1.387-3.336	c-0.364-0.876-0.736-0.757-1.012-0.771c-0.262-0.014-0.562-0.015-0.861-0.015c-0.3,0-0.787,0.113-1.198,0.563	c-0.411,0.45-1.573,1.537-1.573,3.749s1.611,4.35,1.835,4.649c0.224,0.3,3.169,4.839,7.68,6.786	c1.072,0.462,1.911,0.739,2.562,0.947c1.076,0.342,2.057,0.294,2.832,0.178c0.864-0.129,2.66-1.087,3.034-2.136	c0.375-1.049,0.375-1.95,0.262-2.136C29.03,24.025,28.731,23.912,28.28,23.688z" />
	</symbol>
	<!-- ./whatsapp -->

	<symbol id="telegram" xmlns="http://www.w3.org/2000/svg" viewBox="0 0 48 48">
		<path fill="#29b6f6" d="M24 4A20 20 0 1 0 24 44A20 20 0 1 0 24 4Z" />
		<path fill="#fff" d="M33.95,15l-3.746,19.126c0,0-0.161,0.874-1.245,0.874c-0.576,0-0.873-0.274-0.873-0.274l-8.114-6.733 l-3.97-2.001l-5.095-1.355c0,0-0.907-0.262-0.907-1.012c0-0.625,0.933-0.923,0.933-0.923l21.316-8.468 c-0.001-0.001,0.651-0.235,1.126-0.234C33.667,14,34,14.125,34,14.5C34,14.75,33.95,15,33.95,15z" />
		<path fill="#b0bec5" d="M23,30.505l-3.426,3.374c0,0-0.149,0.115-0.348,0.12c-0.069,0.002-0.143-0.009-0.219-0.043 l0.964-5.965L23,30.505z" />
		<path fill="#cfd8dc" d="M29.897,18.196c-0.169-0.22-0.481-0.26-0.701-0.093L16,26c0,0,2.106,5.892,2.427,6.912 c0.322,1.021,0.58,1.045,0.58,1.045l0.964-5.965l9.832-9.096C30.023,18.729,30.064,18.416,29.897,18.196z" />
	</symbol>
	<!-- ./telegram -->

	<symbol id="footer-arrow" viewBox="0 0 13 9" fill="none" xmlns="http://www.w3.org/2000/svg">
		<path d="M6.08287 8.28906C6.43443 8.64062 7.02037 8.64062 7.37193 8.28906L12.6844 2.97656C13.0751 2.58594 13.0751 2 12.6844 1.64844L11.8251 0.75C11.4344 0.398438 10.8485 0.398438 10.4969 0.75L6.70787 4.53906L2.95787 0.75C2.60631 0.398438 2.02037 0.398438 1.62975 0.75L0.770372 1.64844C0.379747 2 0.379747 2.58594 0.770372 2.97656L6.08287 8.28906Z" fill="#333333" fill-opacity="0.5"/>
	</symbol>
	<!-- ./footer-arrow -->

</svg>
